<?xml version="1.0" standalone="no"?>
<!DOCTYPE svg PUBLIC "-//W3C//DTD SVG 20010904//EN"
 "http://www.w3.org/TR/2001/REC-SVG-20010904/DTD/svg10.dtd">
<svg version="1.0" xmlns="http://www.w3.org/2000/svg"
 width="512.000000pt" height="512.000000pt" viewBox="0 0 512.000000 512.000000"
 preserveAspectRatio="xMidYMid meet">

<g transform="translate(0.000000,512.000000) scale(0.100000,-0.100000)"
fill="#000000" stroke="none">
<path d="M4543 5105 c-42 -18 -49 -34 -68 -149 -91 -569 -387 -1177 -834
-1713 -47 -57 -88 -103 -91 -103 -4 0 -19 129 -34 288 -16 158 -32 294 -36
302 -17 31 -48 51 -85 52 -30 1 -43 -4 -62 -26 -31 -36 -30 -59 12 -469 l35
-339 -108 -102 c-370 -355 -792 -652 -1317 -926 -656 -343 -893 -490 -1157
-717 -193 -166 -329 -338 -432 -548 -89 -180 -154 -406 -157 -545 -2 -66 26
-100 83 -100 53 0 84 32 93 96 46 339 206 622 509 902 250 232 463 370 1185
766 117 65 262 146 322 182 l109 65 401 -76 c221 -41 415 -75 431 -75 35 0 88
48 88 79 0 33 -18 69 -42 85 -13 8 -164 41 -336 72 -172 32 -311 61 -310 65 2
4 55 45 119 92 404 293 798 682 1083 1067 315 427 551 910 664 1365 76 304 77
376 7 409 -39 19 -32 19 -72 1z"/>
</g>
</svg>
